<svg xmlns="http://www.w3.org/2000/svg" xmlns:xlink="http://www.w3.org/1999/xlink" viewBox="0 0 553 548.94"><title>A</title><path d="M281.25,359.21h33.18L305,315.52H230.38l-8.85,43.69h33.18V449.9H65.58V359.21H87.7L181.16,19.67H382.45l93.46,339.54H498V449.9H281.25Zm-38.71-102.3h50.88l-22.68-110.6h-5.52Z" transform="translate(-5.31 -13.67)" style="fill:#4733ee"/><path d="M269.64,354.21h33.18l-9.4-43.69H218.76l-8.84,43.69H243.1V444.9H54V354.21H76.09L169.55,14.67H370.84L464.3,354.21h22.12V444.9H269.64Zm-38.71-102.3h50.88l-22.68-110.6H253.6Z" transform="translate(-5.31 -13.67)" style="fill:none;stroke:#000;stroke-width:2px"/><image width="553" height="366" transform="translate(0 238.24) scale(1 0.85)" xlink:href="../1x/feuilles.png"/></svg>